<?xml version="1.0" encoding="UTF-8" standalone="no"?>
<!DOCTYPE svg PUBLIC "-//W3C//DTD SVG 1.1//EN" "http://www.w3.org/Graphics/SVG/1.1/DTD/svg11.dtd">
<svg width="100%" height="100%" viewBox="0 0 1122 1122" version="1.1" xmlns="http://www.w3.org/2000/svg" xmlns:xlink="http://www.w3.org/1999/xlink" xml:space="preserve" xmlns:serif="http://www.serif.com/" style="fill-rule:evenodd;clip-rule:evenodd;stroke-linejoin:round;stroke-miterlimit:2;">
    <g id="Ebene1">
    </g>
    <g id="Object">
        <g>
            <path d="M736.34,442.606L736.34,385.653L385.641,385.653L385.641,435.913L462.26,435.913C463.507,425.951 471.907,418.21 482.196,418.21C493.356,418.21 502.398,427.258 502.398,438.412C502.398,449.569 493.356,458.616 482.196,458.616C471.908,458.616 463.507,450.885 462.26,440.923L385.641,440.923L385.641,473.329L445.412,473.329L445.412,478.334L385.641,478.334L385.641,547.482L531.811,547.482C532.017,547.521 546.276,547.678 555.699,538.453C561.345,532.921 564.214,525.069 564.214,515.092L564.214,485.267C554.252,484.018 546.506,475.611 546.506,465.32C546.506,454.157 555.56,445.118 566.714,445.118C577.868,445.118 586.916,454.157 586.916,465.32C586.916,475.611 579.176,484.018 569.213,485.267L569.213,515.092C569.213,526.485 565.83,535.564 559.179,542.063C548.914,552.064 534.475,552.494 532.078,552.494L385.641,552.494L385.641,596.232L559.456,596.232C560.715,586.271 569.115,578.536 579.409,578.536C590.563,578.536 599.617,587.584 599.617,598.741C599.617,609.898 590.563,618.945 579.409,618.945C569.115,618.945 560.703,611.205 559.456,601.243L385.641,601.243L385.641,630.574L505.877,630.574C506.24,630.589 533.069,631.848 533.069,663.712L533.069,736.355L611.086,736.355L611.086,682.658L616.103,682.658L616.103,736.355L643.343,736.355L643.343,668.62C633.382,667.379 625.641,658.976 625.641,648.678C625.641,637.518 634.689,628.47 645.843,628.47C656.997,628.47 666.044,637.517 666.044,648.678C666.044,658.972 658.322,667.37 648.36,668.62L648.36,736.355L673.349,736.355L673.349,696.27L678.354,696.27L678.354,736.356L736.338,736.356L736.338,499.789L659.74,499.789C658.493,509.747 650.093,517.482 639.786,517.482C628.632,517.482 619.585,508.443 619.585,497.286C619.585,486.123 628.632,477.084 639.786,477.084C650.093,477.084 658.493,484.813 659.74,494.777L736.341,494.777L736.341,447.616L680.196,447.616L680.196,442.605L736.34,442.605L736.34,442.606Z" style="fill:rgb(97,110,125);fill-rule:nonzero;"/>
            <path d="M445.412,689.076C435.099,689.076 426.699,681.348 425.452,671.383L385.641,671.383L385.641,736.355L528.064,736.355L528.064,663.712C528.064,636.632 506.712,635.609 505.798,635.585L385.641,635.585L385.641,666.372L425.452,666.372C426.698,656.411 435.099,648.679 445.412,648.679C456.566,648.679 465.595,657.718 465.595,668.875C465.595,680.038 456.566,689.076 445.412,689.076Z" style="fill:rgb(97,110,125);fill-rule:nonzero;"/>
            <path d="M840.932,425.73L840.932,410.703L781.434,410.703L781.434,373.498C781.434,355.305 766.691,340.556 748.498,340.556L711.29,340.556L711.29,281.059L696.257,281.059L696.257,340.556L663.685,340.556L663.685,281.059L648.663,281.059L648.663,340.556L616.103,340.556L616.103,281.059L601.076,281.059L601.076,340.556L568.504,340.556L568.504,281.059L553.477,281.059L553.477,340.556L520.905,340.556L520.905,281.059L505.878,281.059L505.878,340.556L473.324,340.556L473.324,281.059L458.297,281.059L458.297,340.556L425.725,340.556L425.725,281.059L410.698,281.059L410.698,340.556L373.502,340.556C355.309,340.556 340.566,355.305 340.566,373.498L340.566,410.703L281.068,410.703L281.068,425.73L340.566,425.73L340.566,458.293L281.068,458.293L281.068,473.329L340.566,473.329L340.566,505.886L281.068,505.886L281.068,520.919L340.566,520.919L340.566,553.485L281.068,553.485L281.068,568.512L340.566,568.512L340.566,601.084L281.068,601.084L281.068,616.111L340.566,616.111L340.566,648.677L281.068,648.677L281.068,663.71L340.566,663.71L340.566,696.267L281.068,696.267L281.068,711.303L340.566,711.303L340.566,748.508C340.566,766.697 355.309,781.44 373.502,781.44L410.698,781.44L410.698,840.938L425.725,840.938L425.725,781.44L458.297,781.44L458.297,840.938L473.324,840.938L473.324,781.44L505.878,781.44L505.878,840.938L520.905,840.938L520.905,781.44L553.477,781.44L553.477,840.938L568.504,840.938L568.504,781.44L601.076,781.44L601.076,840.938L616.103,840.938L616.103,781.44L648.663,781.44L648.663,840.938L663.685,840.938L663.685,781.44L696.257,781.44L696.257,840.938L711.29,840.938L711.29,781.44L748.498,781.44C766.691,781.44 781.434,766.697 781.434,748.508L781.434,711.303L840.932,711.303L840.932,696.27L781.434,696.27L781.434,663.713L840.932,663.713L840.932,648.68L781.434,648.68L781.434,616.114L840.932,616.114L840.932,601.087L781.434,601.087L781.434,568.515L840.932,568.515L840.932,553.488L781.434,553.488L781.434,520.92L840.932,520.92L840.932,505.887L781.434,505.887L781.434,473.33L840.932,473.33L840.932,458.294L781.434,458.294L781.434,425.73L840.932,425.73ZM746.362,746.372L375.619,746.372L375.619,375.628L746.362,375.628L746.362,746.372Z" style="fill:rgb(97,110,125);fill-rule:nonzero;"/>
            <path d="M639.785,477.085C628.631,477.085 619.584,486.124 619.584,497.287C619.584,508.444 628.631,517.483 639.785,517.483C650.092,517.483 658.492,509.748 659.739,499.79L736.34,499.79L736.34,494.779L659.74,494.779C658.493,484.814 650.092,477.085 639.785,477.085Z" style="fill:white;fill-rule:nonzero;"/>
            <path d="M425.452,666.372L385.641,666.372L385.641,671.383L425.452,671.383C426.698,681.348 435.099,689.076 445.412,689.076C456.566,689.076 465.595,680.038 465.595,668.875C465.595,657.718 456.566,648.679 445.412,648.679C435.099,648.679 426.698,656.411 425.452,666.372Z" style="fill:white;fill-rule:nonzero;"/>
            <path d="M555.698,538.453C546.275,547.679 532.016,547.521 531.81,547.482L385.64,547.482L385.64,552.493L532.075,552.493C534.472,552.493 548.912,552.063 559.176,542.062C565.827,535.562 569.21,526.484 569.21,515.091L569.21,485.266C579.172,484.017 586.913,475.61 586.913,465.319C586.913,454.156 577.865,445.117 566.711,445.117C555.557,445.117 546.503,454.156 546.503,465.319C546.503,475.61 554.25,484.017 564.211,485.266L564.211,515.091C564.214,525.069 561.345,532.922 555.698,538.453Z" style="fill:white;fill-rule:nonzero;"/>
            <path d="M385.641,596.232L385.641,601.243L559.456,601.243C559.359,600.414 559.202,599.597 559.202,598.741C559.202,597.884 559.359,597.068 559.456,596.232L385.641,596.232Z" style="fill:white;fill-rule:nonzero;"/>
            <path d="M533.07,736.356L533.07,663.713C533.07,631.849 506.241,630.59 505.878,630.575L385.641,630.575L385.641,635.586L505.799,635.586C506.713,635.61 528.065,636.633 528.065,663.713L528.065,736.356L533.07,736.356Z" style="fill:white;fill-rule:nonzero;"/>
            <path d="M643.344,736.356L648.361,736.356L648.361,668.621C647.526,668.724 646.709,668.875 645.844,668.875C644.996,668.875 644.173,668.724 643.344,668.621L643.344,736.356Z" style="fill:white;fill-rule:nonzero;"/>
            <rect x="611.087" y="682.658" width="5.017" height="53.697" style="fill:white;"/>
            <rect x="673.35" y="696.27" width="5.005" height="40.086" style="fill:white;"/>
            <rect x="680.195" y="442.606" width="56.145" height="5.011" style="fill:white;"/>
            <path d="M385.641,435.913L385.641,440.924L462.26,440.924C462.151,440.089 462.006,439.272 462.006,438.412C462.006,437.555 462.151,436.742 462.26,435.913L385.641,435.913Z" style="fill:white;fill-rule:nonzero;"/>
            <rect x="385.641" y="473.33" width="59.771" height="5.005" style="fill:white;"/>
            <path d="M746.362,746.372L746.362,375.628L375.619,375.628L375.619,746.371L746.362,746.371L746.362,746.372ZM385.641,736.356L385.641,385.654L736.34,385.654L736.34,736.356L385.641,736.356Z" style="fill:rgb(130,191,171);fill-rule:nonzero;"/>
            <path d="M462.26,435.913C462.151,436.742 462.006,437.556 462.006,438.412C462.006,439.272 462.151,440.088 462.26,440.924C463.507,450.885 471.907,458.617 482.196,458.617C493.356,458.617 502.398,449.57 502.398,438.413C502.398,427.259 493.356,418.211 482.196,418.211C471.908,418.211 463.507,425.951 462.26,435.913Z" style="fill:rgb(170,212,200);fill-rule:nonzero;"/>
            <path d="M559.457,596.232C559.36,597.067 559.203,597.884 559.203,598.741C559.203,599.597 559.36,600.414 559.457,601.243C560.704,611.205 569.116,618.945 579.41,618.945C590.564,618.945 599.618,609.898 599.618,598.741C599.618,587.584 590.564,578.536 579.41,578.536C569.116,578.536 560.715,586.271 559.457,596.232Z" style="fill:rgb(170,212,200);fill-rule:nonzero;"/>
            <path d="M625.642,648.679C625.642,658.976 633.382,667.38 643.344,668.621C644.173,668.724 644.996,668.875 645.844,668.875C646.709,668.875 647.526,668.724 648.361,668.621C658.322,667.371 666.045,658.974 666.045,648.679C666.045,637.519 656.998,628.471 645.844,628.471C634.69,628.472 625.642,637.519 625.642,648.679Z" style="fill:rgb(130,191,171);fill-rule:nonzero;"/>
        </g>
    </g>
</svg>
