<svg width="84" height="73" viewBox="0 0 84 73" fill="none" xmlns="http://www.w3.org/2000/svg">
<path d="M51.8 34.5714C53.7337 34.5714 55.3 32.9732 55.3 31C55.3 29.0268 53.7337 27.4286 51.8 27.4286C49.8662 27.4286 48.3 29.0268 48.3 31C48.3 32.9732 49.8662 34.5714 51.8 34.5714ZM51.8 28.8571C52.9594 28.8571 53.9 29.817 53.9 31C53.9 32.183 52.9594 33.1429 51.8 33.1429C50.6406 33.1429 49.7 32.183 49.7 31C49.7 29.817 50.6406 28.8571 51.8 28.8571ZM42 36C44.7081 36 46.9 33.7634 46.9 31C46.9 28.2366 44.7081 26 42 26C39.2919 26 37.1 28.2366 37.1 31C37.1 33.7634 39.2919 36 42 36ZM42 27.4286C43.9294 27.4286 45.5 29.0313 45.5 31C45.5 32.9688 43.9294 34.5714 42 34.5714C40.0706 34.5714 38.5 32.9688 38.5 31C38.5 29.0313 40.0706 27.4286 42 27.4286ZM52.675 36H50.925C50.26 36 49.6431 36.2143 49.1269 36.5759C49.5381 36.8616 49.91 37.1964 50.2381 37.5759C50.4525 37.4821 50.6844 37.4286 50.925 37.4286H52.675C53.7337 37.4286 54.6 38.3884 54.6 39.5714C54.6 39.9643 54.915 40.2857 55.3 40.2857C55.685 40.2857 56 39.9643 56 39.5714C56 37.6027 54.5081 36 52.675 36V36ZM32.2 34.5714C34.1337 34.5714 35.7 32.9732 35.7 31C35.7 29.0268 34.1337 27.4286 32.2 27.4286C30.2662 27.4286 28.7 29.0268 28.7 31C28.7 32.9732 30.2662 34.5714 32.2 34.5714ZM32.2 28.8571C33.3594 28.8571 34.3 29.817 34.3 31C34.3 32.183 33.3594 33.1429 32.2 33.1429C31.0406 33.1429 30.1 32.183 30.1 31C30.1 29.817 31.0406 28.8571 32.2 28.8571ZM45.5044 36.8929C44.0431 36.8929 43.68 37.4286 42 37.4286C40.32 37.4286 39.9569 36.8929 38.4956 36.8929C36.9075 36.8929 35.3631 37.6161 34.4575 38.9866C33.915 39.808 33.6 40.7946 33.6 41.8571V43.8571C33.6 45.0402 34.5406 46 35.7 46H48.3C49.4594 46 50.4 45.0402 50.4 43.8571V41.8571C50.4 40.7946 50.085 39.808 49.5425 38.9866C48.6369 37.6161 47.0925 36.8929 45.5044 36.8929V36.8929ZM49 43.8571C49 44.25 48.685 44.5714 48.3 44.5714H35.7C35.315 44.5714 35 44.25 35 43.8571V41.8571C35 41.1161 35.2144 40.3973 35.6169 39.7857C36.2206 38.8705 37.2969 38.3214 38.4912 38.3214C39.69 38.3214 40.1187 38.8571 42 38.8571C43.8812 38.8571 44.31 38.3214 45.5044 38.3214C46.6987 38.3214 47.775 38.8705 48.3787 39.7857C48.7812 40.3973 48.9956 41.1161 48.9956 41.8571V43.8571H49ZM34.8731 36.5759C34.3525 36.2143 33.7356 36 33.075 36H31.325C29.4919 36 28 37.6027 28 39.5714C28 39.9643 28.315 40.2857 28.7 40.2857C29.085 40.2857 29.4 39.9643 29.4 39.5714C29.4 38.3884 30.2662 37.4286 31.325 37.4286H33.075C33.3156 37.4286 33.5475 37.4821 33.7619 37.5759C34.09 37.1964 34.4663 36.8616 34.8731 36.5759V36.5759Z" fill="black"/>
</svg>
