<svg width="84" height="73" viewBox="0 0 84 73" fill="none" xmlns="http://www.w3.org/2000/svg">
<path d="M31.0447 28.1337L39.0458 36.1593C39.2235 36.3375 39.2235 36.6264 39.0458 36.8046L31.0447 44.8302C30.867 45.0084 30.579 45.0084 30.4013 44.8302L30.1332 44.5614C29.9556 44.3832 29.9556 44.0942 30.1332 43.916L37.5446 36.4819L30.1332 29.0479C29.9556 28.8697 29.9556 28.5808 30.1332 28.4025L30.4013 28.1337C30.579 27.9554 30.867 27.9554 31.0447 28.1337V28.1337ZM54 44.5437V44.1634C54 43.9114 53.7963 43.7071 53.5451 43.7071H41.1102C40.859 43.7071 40.6553 43.9114 40.6553 44.1634V44.5437C40.6553 44.7957 40.859 45 41.1102 45H53.5451C53.7963 45 54 44.7957 54 44.5437Z" fill="black"/>
</svg>
