<svg width="84" height="73" viewBox="0 0 84 73" fill="none" xmlns="http://www.w3.org/2000/svg">
<g clip-path="url(#clip0_381_46)">
<path d="M52.2156 47.1986C52.2156 47.7151 51.7983 48.1324 51.2818 48.1324C50.7653 48.1324 50.348 47.7151 50.348 47.1986C50.348 46.6821 50.7653 46.2648 51.2818 46.2648C51.7983 46.2648 52.2156 46.6821 52.2156 47.1986ZM55.9507 36.4601V48.5993C55.9507 49.3726 55.3234 50 54.5501 50H48.0136C47.2403 50 46.6129 49.3726 46.6129 48.5993V36.4601C46.6129 35.6868 47.2403 35.0594 48.0136 35.0594H54.5501C55.3234 35.0594 55.9507 35.6868 55.9507 36.4601ZM55.017 36.4601C55.017 36.2033 54.8069 35.9932 54.5501 35.9932H48.0136C47.7568 35.9932 47.5467 36.2033 47.5467 36.4601V48.5993C47.5467 48.8561 47.7568 49.0662 48.0136 49.0662H54.5501C54.8069 49.0662 55.017 48.8561 55.017 48.5993V36.4601Z" fill="black"/>
</g>
<path d="M53.5879 23.8541C54.9197 23.8541 56 24.952 56 26.3052V34.1255H54.3916V26.3052C54.3916 25.8559 54.0301 25.4879 53.5879 25.4879H29.4648C29.0228 25.4881 28.6611 25.856 28.6611 26.3052V41.0123C28.6611 41.4615 29.0228 41.8294 29.4648 41.8297H45.6787V43.4634H43.9385L45.1455 48.3658H45.6787V49.9996H34.29C33.8479 49.9996 33.4855 49.6324 33.4854 49.1832C33.4854 48.7338 33.8478 48.3658 34.29 48.3658H37.9082L39.1143 43.4634H29.4648C28.1333 43.4632 27.0527 42.3654 27.0527 41.0123V26.3052C27.0527 24.9521 28.1333 23.8543 29.4648 23.8541H53.5879ZM40.3711 45.0972L39.5664 48.3658H43.4863L42.6826 45.0972H40.3711Z" fill="black"/>
<defs>
<clipPath id="clip0_381_46">
<rect width="9.33783" height="14.9405" fill="white" transform="translate(46.6129 35.0594)"/>
</clipPath>
</defs>
</svg>
