<svg version="1.1" id="Layer_1" xmlns="http://www.w3.org/2000/svg" xmlns:xlink="http://www.w3.org/1999/xlink" x="0px" y="0px"
	 width="100%" viewBox="0 0 1024 1024" enable-background="new 0 0 1024 1024" xml:space="preserve">
<path fill="#000000" opacity="1.000000" stroke="none" 
	d="
M432.376892,646.346069 
	C419.079834,655.302673 404.231598,659.403015 389.201294,662.079468 
	C347.077576,669.580322 305.866821,664.984741 266.427917,648.735291 
	C224.951523,631.646301 200.513000,598.901367 186.730774,557.262695 
	C184.327972,550.003296 182.181412,542.635315 179.324509,535.556396 
	C176.119247,527.614258 168.830551,523.994934 161.363754,521.547913 
	C138.864639,514.174500 118.358040,518.714844 99.914192,533.169128 
	C93.496529,538.198669 87.350510,543.575256 81.092415,548.807678 
	C78.219170,551.210022 75.105339,553.203003 71.210762,552.901611 
	C63.612480,552.313538 59.540546,545.297180 62.669937,537.903503 
	C66.477043,528.908630 72.408371,521.248962 78.810280,513.984924 
	C87.954834,503.608887 96.688126,493.025879 104.009888,481.161560 
	C119.699715,455.737457 112.082413,428.734680 96.361168,409.403839 
	C89.498505,400.965576 81.471985,393.709412 72.879837,387.052856 
	C69.561203,384.481842 66.669464,381.691864 66.568298,376.865479 
	C66.465790,371.974792 67.634918,367.980743 71.967003,365.332123 
	C76.564804,362.521149 80.934166,363.607971 85.094414,366.320374 
	C93.046585,371.505035 100.826340,376.965363 109.235863,381.413574 
	C117.170601,385.610657 124.961449,390.345642 134.287094,390.630737 
	C147.393066,391.031403 156.197510,383.248749 158.601425,369.052582 
	C160.929077,355.306854 159.831589,341.545197 158.218002,327.812408 
	C157.734039,323.693634 156.929108,319.592468 156.751648,315.462616 
	C156.506119,309.748535 159.445511,306.068146 164.598907,304.879761 
	C169.740311,303.694153 174.643967,306.049622 176.866989,311.131653 
	C179.418228,316.963928 180.163651,323.298676 181.284088,329.490723 
	C183.390076,341.129456 186.464325,352.452698 190.321838,363.652069 
	C193.444565,372.718201 203.106415,375.419037 210.500244,374.135773 
	C223.895386,371.810913 234.309006,364.018372 244.209290,355.576538 
	C256.132660,345.409698 267.396545,334.527496 276.457886,321.582703 
	C278.262329,319.004913 280.391754,316.604370 282.644623,314.401611 
	C286.830750,310.308502 291.756866,309.490845 295.804749,311.905792 
	C299.740295,314.253784 302.115540,320.092346 300.958374,325.063019 
	C299.694550,330.491730 296.807983,335.202362 293.985474,339.918762 
	C285.497833,354.101562 275.108276,366.946594 265.526184,380.360077 
	C260.966522,386.742920 256.688690,393.258575 255.007370,401.141815 
	C253.369370,408.822021 257.407776,414.787018 265.193573,415.652100 
	C275.711700,416.820740 285.705719,414.242798 295.508362,410.932800 
	C304.017242,408.059601 312.391418,404.785889 320.813873,401.658905 
	C329.928253,398.274933 335.141571,399.353699 338.267517,405.321838 
	C341.766785,412.002747 339.727386,419.588745 332.192596,424.183411 
	C322.963806,429.811066 313.338806,434.803406 303.781128,439.874451 
	C280.806793,452.063995 259.224640,466.364624 242.129166,486.078369 
	C223.039368,508.091919 215.005554,533.929688 225.421326,562.105469 
	C233.863342,584.942139 250.078079,602.467041 272.015320,613.614990 
	C299.155884,627.407349 327.652710,636.044373 358.631226,635.823547 
	C379.269196,635.676453 399.419708,633.512817 419.150513,627.549011 
	C422.431458,626.557312 425.737427,626.142456 428.975952,627.108154 
	C437.083252,629.525635 438.857300,638.957886 432.376892,646.346069 
M175.125641,479.298187 
	C176.115570,479.378113 177.127777,479.634003 178.092102,479.511810 
	C195.146454,477.350922 210.850296,462.604797 214.797684,445.660461 
	C216.775848,437.169098 215.221695,430.242584 208.202087,424.750092 
	C199.759445,418.144104 190.345581,417.910492 180.744919,420.965027 
	C165.322906,425.871674 155.817856,445.125122 160.059616,462.121460 
	C162.053284,470.109894 165.669037,476.739960 175.125641,479.298187 
z"/>
<path fill="#000000" opacity="1.000000" stroke="none" 
	d="
M805.364014,450.359619 
	C827.828918,459.047180 842.091248,480.197418 842.398010,503.964569 
	C842.717834,528.738831 833.000122,547.907593 810.615601,558.933655 
	C779.061523,574.476501 732.396240,558.445435 727.543030,513.919739 
	C724.159119,482.874054 741.689453,456.652802 771.606384,448.533875 
	C782.845459,445.483826 794.008484,446.826996 805.364014,450.359619 
M777.942078,535.650452 
	C788.869141,538.251709 798.580505,535.984924 806.099915,527.499451 
	C815.761536,516.596375 816.535583,498.605255 808.376526,486.541656 
	C801.896790,476.960846 790.386047,471.714874 780.494080,473.834442 
	C766.993103,476.727234 757.136902,487.435974 756.256653,500.168335 
	C754.952515,519.031311 761.278564,529.737122 777.942078,535.650452 
z"/>
<path fill="#000000" opacity="1.000000" stroke="none" 
	d="
M517.686768,479.565552 
	C520.645874,487.483215 521.765137,495.386627 522.171143,503.349915 
	C522.646606,512.675842 518.104126,517.271973 508.715332,517.327942 
	C489.738556,517.441040 470.760406,517.508240 451.800720,516.431702 
	C449.999420,516.329407 448.187317,516.418091 446.408752,516.418091 
	C446.097321,525.430298 453.105988,534.810120 461.142242,536.711548 
	C475.010376,539.992737 488.491150,538.963684 501.612640,533.315491 
	C507.634277,530.723450 508.463379,531.102356 510.488800,537.359070 
	C511.561218,540.671814 512.437073,544.050232 513.336975,547.416321 
	C514.660767,552.367859 512.728394,556.253357 508.350952,558.175415 
	C485.066833,568.399597 450.945190,569.182007 431.421387,547.446350 
	C423.015869,538.088501 418.607574,526.795471 416.845306,514.634216 
	C413.882935,494.191223 420.096069,476.404999 434.729828,461.936279 
	C457.596008,439.327942 496.945374,443.794312 513.632629,470.594452 
	C515.314148,473.295105 516.629517,476.152740 517.686768,479.565552 
M486.321960,477.153259 
	C478.185150,470.593567 469.252075,470.245148 460.125458,474.393280 
	C452.326691,477.937866 448.660431,484.805298 446.410156,492.493988 
	C447.237152,493.090790 447.496216,493.440765 447.765320,493.448608 
	C462.038177,493.865051 476.312134,494.244904 490.585358,494.649658 
	C493.445709,494.730804 494.101440,493.087250 493.448822,490.781036 
	C492.094330,485.994537 490.915894,481.079071 486.321960,477.153259 
z"/>
<path fill="#000000" opacity="1.000000" stroke="none" 
	d="
M630.315918,450.225525 
	C638.147644,451.743011 639.341553,453.139130 639.344788,460.523590 
	C639.353455,480.342987 639.799194,500.175995 639.204407,519.977539 
	C638.721313,536.059998 632.593506,549.712158 618.375183,558.738892 
	C611.858093,562.876343 604.472107,564.435059 597.063538,565.061340 
	C588.306580,565.801392 579.433105,565.947998 570.715698,564.035645 
	C549.968445,559.484375 536.364319,542.654968 535.918518,519.919983 
	C535.526794,499.942566 535.831543,479.949768 535.965698,459.964661 
	C536.009094,453.492981 538.152893,451.590790 544.501099,450.549438 
	C549.041016,449.804749 553.494141,450.445770 557.931274,450.842621 
	C563.229919,451.316467 565.322998,454.066162 565.334167,459.598602 
	C565.369141,476.919708 565.370361,494.240967 565.336304,511.562073 
	C565.327759,515.934814 566.039612,520.184875 567.500183,524.262512 
	C571.027649,534.110413 579.906555,539.152893 590.490845,537.492493 
	C603.278198,535.486389 609.457092,529.465271 609.640930,517.827026 
	C609.930237,499.511536 609.807983,481.189209 609.812500,462.869781 
	C609.814941,452.828644 612.265381,450.220245 622.411194,449.904144 
	C624.899902,449.826569 627.397827,450.046997 630.315918,450.225525 
z"/>
<path fill="#000000" opacity="1.000000" stroke="none" 
	d="
M854.668213,498.006287 
	C854.097168,487.353607 855.186584,477.479980 860.650940,468.644470 
	C869.088806,455.001099 882.019714,448.294891 897.495300,446.849792 
	C909.861755,445.695007 922.212219,447.054565 933.382446,453.127014 
	C948.778992,461.497009 954.902283,475.668335 956.258240,492.261261 
	C957.779053,510.872589 956.849670,529.546326 957.010559,548.192383 
	C957.029114,550.343445 956.778748,552.515930 956.449890,554.647095 
	C955.641663,559.884277 953.114868,562.123413 947.755249,562.307556 
	C944.260925,562.427612 940.758972,562.373047 937.261108,562.337646 
	C929.441650,562.258545 927.056152,559.935669 927.016541,552.240967 
	C926.928284,535.082581 926.839172,517.923889 926.856079,500.765411 
	C926.861450,495.347534 926.074890,490.152008 923.641785,485.283905 
	C920.050110,478.097687 914.015198,475.144135 906.179993,475.039307 
	C898.115723,474.931427 891.376526,477.202148 887.343079,484.736664 
	C884.624939,489.814301 883.364014,495.295105 883.357178,501.044556 
	C883.336670,518.203247 883.362976,535.361938 883.339417,552.520630 
	C883.330505,558.998169 881.080383,561.522644 874.750854,562.469788 
	C870.938782,563.040222 867.176270,563.150146 863.322510,562.554626 
	C856.246704,561.461243 854.672424,559.820007 854.666992,552.479492 
	C854.653748,534.487915 854.666321,516.496399 854.668213,498.006287 
z"/>
<path fill="#000000" opacity="1.000000" stroke="none" 
	d="
M304.655579,537.999390 
	C304.663483,523.167480 304.533386,508.833801 304.707794,494.503815 
	C305.094910,462.699249 330.372772,444.191162 360.325287,448.215271 
	C373.576752,449.995575 385.149719,453.963776 393.837219,464.635803 
	C400.392181,472.688110 404.047180,481.922455 404.226257,492.136658 
	C404.579681,512.295227 404.358002,532.464478 404.307068,552.629150 
	C404.290802,559.069580 402.194580,561.345642 395.834381,561.967102 
	C390.992310,562.440125 386.125122,561.961853 381.406708,561.069458 
	C376.975372,560.231384 375.589478,556.753601 375.613525,552.404907 
	C375.703827,536.073608 375.620514,519.741394 375.668854,503.409729 
	C375.680786,499.373901 375.016693,495.452942 373.939240,491.613983 
	C370.919861,480.856201 362.943817,475.270721 352.469208,476.429108 
	C342.222748,477.562256 334.707336,485.115265 334.356964,495.737305 
	C333.747375,514.215820 333.646210,532.711365 333.369171,551.200317 
	C333.254150,558.877991 332.016602,560.495789 324.497528,561.793762 
	C320.033081,562.564392 315.569550,562.271301 311.089600,561.503418 
	C306.725006,560.755371 304.705688,558.274719 304.676208,553.997803 
	C304.640594,548.831848 304.660065,543.665405 304.655579,537.999390 
z"/>
<path fill="#000000" opacity="1.000000" stroke="none" 
	d="
M684.000854,493.068481 
	C683.714539,495.625580 683.380798,497.772644 683.375305,499.920532 
	C683.330933,517.249084 683.366638,534.577881 683.336792,551.906494 
	C683.326172,558.057617 681.532410,560.353210 675.591187,561.651550 
	C669.961182,562.881897 664.310242,562.417542 658.745178,561.194397 
	C654.755615,560.317505 654.460083,557.079346 654.471130,553.749146 
	C654.541565,532.589294 654.583862,511.429352 654.677734,490.269653 
	C654.686584,488.286621 654.769104,486.256958 655.189148,484.329956 
	C659.266907,465.619507 672.418396,452.915985 691.368042,449.759918 
	C699.211487,448.453552 707.142334,447.138885 715.154053,448.602692 
	C721.903687,449.835938 723.863403,452.137970 724.006470,459.033386 
	C724.075623,462.364441 724.088013,465.699432 724.013733,469.030121 
	C723.872192,475.378845 721.756836,477.175171 715.590759,475.968872 
	C710.425232,474.958374 705.350037,475.128723 700.266479,476.376831 
	C691.555420,478.515533 685.751648,483.518341 684.000854,493.068481 
z"/>
</svg>