<?xml version="1.0" encoding="UTF-8"?>
<!-- Generator: Adobe Illustrator 15.1.0, SVG Export Plug-In . SVG Version: 6.00 Build 0)  -->
<!DOCTYPE svg PUBLIC "-//W3C//DTD SVG 1.1//EN" "http://www.w3.org/Graphics/SVG/1.1/DTD/svg11.dtd">
<svg version="1.1" id="Redox-logo" xmlns="http://www.w3.org/2000/svg" xmlns:xlink="http://www.w3.org/1999/xlink" x="0px" y="0px" width="496px" height="238px" viewBox="0 0 496 238" enable-background="new 0 0 496 238" xml:space="preserve">
<g>
	<g id="Electron_shell" transform="translate(-99.662509,-115)">
		<path d="M214.007,119.656c-63.127,0-114.344,51.217-114.344,114.345c0,63.126,51.217,114.345,114.344,114.345    c42.849,0,80.204-23.604,99.785-58.506c-1.844,0.832-3.739,1.547-5.673,2.137c-19.46,31.533-54.319,52.543-94.112,52.543    c-61.059,0-110.518-49.459-110.518-110.519c0-61.06,49.459-110.519,110.518-110.519c51.963,0,95.517,35.824,107.342,84.133    c1.669,1.168,3.261,2.441,4.767,3.814C315.624,159.105,269.407,119.656,214.007,119.656z"/>
		<path d="M214.243,147.527c-47.604,0-86.235,38.631-86.235,86.23c0,47.604,38.632,86.235,86.235,86.235    c25.541,0,48.495-11.123,64.289-28.783c-1.274-0.451-2.528-0.959-3.759-1.52c-15.052,16.279-36.592,26.479-60.53,26.479    c-45.536,0-82.409-36.875-82.409-82.411c0-45.535,36.874-82.406,82.409-82.406c33.338,0,62.031,19.77,75.012,48.229    c1.341-0.157,2.688-0.26,4.039-0.303C279.975,168.824,249.582,147.527,214.243,147.527z"/>
		<circle stroke="#000" stroke-width="0.4525" cx="214" cy="347.386" r="5.028"/>
		<circle stroke="#000" stroke-width="0.4525" cx="214" cy="319.039" r="5.027"/>
		<circle stroke="#000" stroke-width="0.4525" cx="214" cy="148.96" r="5.028"/>
		<circle stroke="#000" stroke-width="0.4525" cx="214" cy="120.614" r="5.028"/>
		<path stroke="#000" stroke-width="1.7102" d="M316.697,288.445c-2.953,1.578-6.064,2.84-9.283,3.764    c0.66,2.088,2.597,3.512,4.787,3.514c2.777,0.002,5.028-2.25,5.029-5.025l0,0C317.224,289.912,317.04,289.143,316.697,288.445z"/>
		<circle stroke="#000" stroke-width="0.4525" cx="115.808" cy="177.307" r="5.028"/>
		<circle stroke="#000" stroke-width="0.4525" cx="312.201" cy="177.307" r="5.028"/>
		<circle stroke="#000" stroke-width="0.4525" cx="115.808" cy="290.692" r="5.028"/>
	</g>
	<g id="Text">
		<g transform="matrix(1.190496,0,0,1.190496,111.10177,-18.88093)">
			<path d="M5.251,126.38l23.475,31.28H18.319c0,0-9.412-12.66-28.236-37.981c9.006,0,15.428-0.536,19.267-1.605     c8.083-2.398,12.125-8.212,12.125-17.439c0-3.839-0.775-7.142-2.326-9.908c-1.513-2.769-3.691-4.836-6.533-6.201     c-4.282-2.029-10.704-3.045-19.267-3.045h-11.793v76.182h-8.36V73.896c0,0,6.902,0,20.706,0c10.926,0,18.953,1.422,24.084,4.261     c3.912,2.289,6.884,5.352,8.914,9.191c2.067,3.839,3.1,8.306,3.1,13.4c0,7.493-2.123,13.435-6.367,17.828     C19.426,122.928,13.3,125.53,5.251,126.38L5.251,126.38z"/>
			<path d="M102.031,129.425c0,0-18.695,0-56.085,0c0.332,6.128,2.842,11.332,7.53,15.614c4.688,4.243,10.224,6.366,16.61,6.366     c4.725,0,9.079-1.291,13.066-3.875c3.986-2.62,6.847-6.052,8.582-10.298h8.748c-2.289,6.533-6.201,11.829-11.738,15.891     c-5.536,4.024-11.682,6.034-18.436,6.034c-4.503,0-8.785-0.848-12.845-2.546c-4.06-1.698-7.548-4.005-10.464-6.922     c-2.916-2.915-5.223-6.405-6.921-10.465c-1.698-4.059-2.547-8.341-2.547-12.843c0-5.906,1.421-11.331,4.263-16.277     c2.842-4.946,6.718-8.84,11.627-11.682c4.909-2.842,10.316-4.263,16.222-4.263c6.127,0,11.756,1.513,16.886,4.54     c5.167,3.027,9.098,7.142,11.793,12.345c1.366,2.62,2.326,5.316,2.879,8.083C101.753,121.86,102.031,125.291,102.031,129.425     L102.031,129.425z M46.167,121.839H93.67c-1.403-6.164-4.263-11.034-8.582-14.614c-4.282-3.581-9.431-5.37-15.447-5.37     c-5.869,0-10.962,1.845-15.281,5.535C50.042,111.044,47.311,115.862,46.167,121.839z"/>
			<path d="M177.049,73.894v83.766h-8.415c0,0,0-3.745,0-11.241c-3.211,4.503-6.661,7.753-10.351,9.745     c-3.654,1.992-8.064,2.988-13.233,2.988c-6.311,0-12.049-1.403-17.218-4.205c-5.129-2.805-9.173-6.682-12.126-11.625     c-2.95-4.946-4.428-10.446-4.428-16.501c0-6.128,1.422-11.681,4.262-16.663c2.878-4.982,6.827-8.895,11.847-11.738     c5.056-2.842,10.685-4.265,16.887-4.265c9.932,0,18.047,3.782,24.36,11.35V73.893L177.049,73.894L177.049,73.894z      M143.719,101.853c-6.643,0-12.29,2.417-16.941,7.253c-4.651,4.799-6.977,10.628-6.977,17.494c0,6.976,2.399,12.862,7.196,17.661     c4.835,4.764,10.777,7.143,17.828,7.143c6.644,0,12.327-2.436,17.052-7.309c4.725-4.873,7.087-10.741,7.087-17.605     s-2.435-12.68-7.312-17.441C156.786,104.252,150.806,101.853,143.719,101.853z"/>
			<path d="M221.896,94.158c6.016,0,11.443,1.422,16.276,4.263c4.873,2.805,8.674,6.699,11.405,11.682     c2.768,4.983,4.151,10.557,4.151,16.721c0,9.301-2.988,17.015-8.966,23.142c-5.98,6.128-13.528,9.191-22.645,9.191     c-6.238,0-11.886-1.403-16.941-4.208c-5.056-2.805-9.025-6.681-11.904-11.624c-2.843-4.946-4.264-10.483-4.264-16.609     c0-9.412,3.101-17.182,9.302-23.31C204.511,97.24,212.371,94.158,221.896,94.158z M221.233,101.853     c-6.792,0-12.439,2.382-16.942,7.143c-4.503,4.725-6.754,10.666-6.754,17.827c0,7.087,2.307,12.957,6.92,17.607     c4.615,4.648,10.428,6.976,17.44,6.976c6.828,0,12.419-2.289,16.775-6.864c4.392-4.613,6.589-10.483,6.589-17.605     c0-7.307-2.253-13.305-6.754-17.994C234.002,104.215,228.245,101.853,221.233,101.853z"/>
			<path d="M257.33,157.66l21.592-31.613L257.33,95.652h9.521l16.832,23.918l16.664-23.918h9.635l-21.703,30.395l21.703,31.613     h-9.635l-16.664-24.857l-16.832,24.857H257.33L257.33,157.66z"/>
		</g>
	</g>
</g>
</svg>